<svg width="30" height="30" viewBox="0 0 30 30" fill="none" xmlns="http://www.w3.org/2000/svg">
<path d="M26.4844 2.34375H25.0781V0H22.7344V2.34375H7.26562V0H4.92188V2.34375H3.51562C1.57711 2.34375 0 3.92086 0 5.85938V26.4844C0 28.4229 1.57711 30 3.51562 30H26.4844C28.4229 30 30 28.4229 30 26.4844V5.85938C30 3.92086 28.4229 2.34375 26.4844 2.34375ZM27.6562 26.4844C27.6562 27.1305 27.1305 27.6562 26.4844 27.6562H3.51562C2.86945 27.6562 2.34375 27.1305 2.34375 26.4844V11.0156H27.6562V26.4844ZM27.6562 8.67188H2.34375V5.85938C2.34375 5.2132 2.86945 4.6875 3.51562 4.6875H4.92188V7.03125H7.26562V4.6875H22.7344V7.03125H25.0781V4.6875H26.4844C27.1305 4.6875 27.6562 5.2132 27.6562 5.85938V8.67188Z" fill="black"/>
</svg>
